<?xml version="1.0" standalone="no"?>
<!DOCTYPE svg PUBLIC "-//W3C//DTD SVG 1.1//EN" "http://www.w3.org/Graphics/SVG/1.1/DTD/svg11.dtd">
<svg width="100%" height="100%" viewBox="0 0 256 256" version="1.1" xmlns="http://www.w3.org/2000/svg" xmlns:xlink="http://www.w3.org/1999/xlink" xml:space="preserve" style="fill-rule:evenodd;clip-rule:evenodd;stroke-linejoin:round;stroke-miterlimit:1.41421;">
    <g>
        <g id="Ebene1">
            <path d="M4.12648,230.874C4.12648,219.828 13.0808,210.874 24.1265,210.874C35.1722,210.874 44.1265,219.828 44.1265,230.874C44.1265,241.919 35.1722,250.874 24.1265,250.874C13.0808,250.874 4.12648,241.919 4.12648,230.874Z" style="fill:black;"/>
            <path d="M4.12648,103.792C4.12648,92.7465 13.0808,83.7922 24.1265,83.7922C35.1722,83.7922 44.1265,92.7465 44.1265,103.792C44.1265,114.838 35.1722,123.792 24.1265,123.792C13.0808,123.792 4.12648,114.838 4.12648,103.792Z" style="fill:black;"/>
            <path d="M132.778,231.874C132.778,220.828 141.732,211.874 152.778,211.874C163.824,211.874 172.778,220.828 172.778,231.874C172.778,242.919 163.824,251.874 152.778,251.874C141.732,251.874 132.778,242.919 132.778,231.874Z" style="fill:black;"/>
            <path d="M210.874,151.965C210.874,140.919 219.828,131.965 230.874,131.965C241.919,131.965 250.874,140.919 250.874,151.965C250.874,163.01 241.919,171.965 230.874,171.965C219.828,171.965 210.874,163.01 210.874,151.965Z" style="fill:black;"/>
            <path d="M83.9823,24.1265C83.9823,13.0808 92.9366,4.12648 103.982,4.12648C115.028,4.12648 123.982,13.0808 123.982,24.1265C123.982,35.1722 115.028,44.1265 103.982,44.1265C92.9366,44.1265 83.9823,35.1722 83.9823,24.1265Z" style="fill:black;"/>
        </g>
        <g id="Ebene2">
            <path d="M151.911,236.373L25.4353,234.746L24.8573,234.701C24.6681,234.662 24.476,234.634 24.2898,234.582C23.9166,234.479 23.5583,234.328 23.2238,234.132C22.2161,233.544 21.4644,232.566 21.1546,231.441C21.0173,230.942 21.0321,230.808 20.9934,230.295L19.6267,104.08C19.6561,103.552 19.6374,103.413 19.7715,102.898C19.922,102.32 20.1885,101.773 20.5515,101.298C20.6723,101.14 20.8135,100.999 20.9445,100.849L100.849,20.9445C101.242,20.6005 101.326,20.4919 101.781,20.2294C102.463,19.836 103.244,19.6265 104.031,19.6265C104.621,19.6265 105.209,19.7434 105.753,19.969C106.117,20.1195 106.459,20.317 106.771,20.5564C106.926,20.6758 107.066,20.8151 107.213,20.9445L235.056,148.787C235.4,149.179 235.508,149.264 235.771,149.719C236.164,150.4 236.374,151.182 236.374,151.969C236.374,152.558 236.257,153.146 236.031,153.691C235.88,154.054 235.683,154.396 235.444,154.708C235.324,154.864 235.185,155.003 235.056,155.151L155.151,235.056C155.001,235.187 154.859,235.328 154.701,235.449C154.383,235.692 154.034,235.891 153.664,236.042C153.17,236.243 153.029,236.243 152.508,236.341C152.309,236.352 152.11,236.362 151.911,236.373ZM150.129,227.349L225.51,151.969L104.031,30.4904L28.6467,105.875L29.9453,225.803C70.0065,226.319 110.068,226.834 150.129,227.349Z" style="fill:black;fill-rule:nonzero;"/>
        </g>
    </g>
</svg>
